<svg width="31" height="34" viewBox="0 0 31 34" fill="none" xmlns="http://www.w3.org/2000/svg">
<path d="M16.1565 8.14775C16.1565 4.07852 19.4552 0.779785 23.5244 0.779785H30.8924V8.14775C30.8924 12.217 27.5937 15.5157 23.5244 15.5157C19.4552 15.5157 16.1565 12.217 16.1565 8.14775Z" fill="#FF6D35"/>
<path d="M23.5243 33.193C19.4551 33.193 16.1564 29.8942 16.1564 25.825V18.457H23.5243C27.5936 18.457 30.8923 21.7558 30.8923 25.825C30.8923 29.8942 27.5936 33.193 23.5243 33.193Z" fill="#5CC97B"/>
<path d="M13.8348 16.168C13.8348 7.99126 7.70857 1.36279 0.151466 1.36279V25.5372C0.151466 29.6255 3.21458 32.9398 6.99325 32.9398C10.7718 32.9398 13.8348 29.6255 13.8348 25.5372V16.168Z" fill="#3D96F4"/>
</svg>
