<svg width="165" height="35" viewBox="0 0 165 35" fill="none" xmlns="http://www.w3.org/2000/svg">
<path d="M0.993896 23.1287L12.6535 18.0754L19.3645 21.8652L20.7202 34.2984L12.4501 34.2323L13.6703 25.5883L12.2467 24.7905L5.26451 30.1097L0.993896 23.1287Z" fill="#81818B"/>
<path d="M20.1106 21.3329L30.4145 28.7127L34.4816 21.5989L26.2113 18.341V16.7453L34.4816 13.4209L30.4145 6.37329L20.1106 13.7534V21.3329Z" fill="#81818B"/>
<path d="M19.3645 13.1553L20.7202 0.722168L12.4501 0.85515L13.6703 9.49844L12.2467 10.2963L5.19673 4.97735L0.993896 11.892L12.6535 16.945L19.3645 13.1553Z" fill="#81818B"/>
<path d="M62.0724 16.0202V27.6684H66.5234V12.8239H60.0417V16.0202H62.0724Z" fill="#81818B"/>
<path d="M61.9333 10.7382C62.3412 11.1535 62.9628 11.3611 63.7971 11.3611C64.6323 11.3611 65.244 11.1535 65.633 10.7382C66.0414 10.3046 66.2451 9.76281 66.2451 9.11286C66.2451 8.44459 66.0414 7.90284 65.633 7.48756C65.244 7.05417 64.6323 6.8374 63.7971 6.8374C62.9628 6.8374 62.3412 7.05417 61.9333 7.48756C61.5443 7.90284 61.3495 8.44459 61.3495 9.11286C61.3495 9.76281 61.5443 10.3046 61.9333 10.7382Z" fill="#81818B"/>
<path d="M46.5776 27.3431C47.8387 27.9028 49.3869 28.183 51.2228 28.183C52.948 28.183 54.4311 27.9207 55.6743 27.3973C56.917 26.8737 57.8719 26.1421 58.5392 25.203C59.2259 24.2459 59.5687 23.1354 59.5687 21.8712C59.5687 20.6433 59.2448 19.6049 58.5954 18.756C57.9643 17.8893 57.0839 17.2121 55.9525 16.7246C54.8212 16.2188 53.5134 15.9028 52.0297 15.7765L50.4721 15.6411C49.5449 15.5687 48.8771 15.325 48.4692 14.9095C48.0607 14.4943 47.857 14.0066 47.857 13.4469C47.857 13.0133 47.9689 12.6162 48.1904 12.255C48.4135 11.8757 48.7469 11.5778 49.1921 11.361C49.6562 11.1445 50.2216 11.036 50.8894 11.036C51.594 11.036 52.1783 11.1623 52.6419 11.4153C52.7437 11.4687 52.8409 11.5259 52.9317 11.5865L52.9537 11.6016C52.9879 11.6245 53.0215 11.6482 53.054 11.6722C53.3359 11.8818 53.5601 12.1302 53.7271 12.4175C53.9675 12.8149 54.0888 13.2572 54.0888 13.7449H58.5392C58.5392 12.4445 58.2331 11.3159 57.6215 10.3588C57.0099 9.38366 56.1289 8.63427 54.9792 8.11038C53.8473 7.56863 52.4844 7.29773 50.8894 7.29773C49.3685 7.29773 48.0518 7.55073 46.9388 8.0563C45.8263 8.54397 44.9548 9.24821 44.3243 10.1691C43.7116 11.0901 43.4056 12.1828 43.4056 13.4469C43.4056 15.1986 44.0088 16.607 45.2142 17.6727C46.4196 18.7381 48.0334 19.3521 50.0547 19.5146L51.5851 19.65C52.8272 19.7584 53.7271 20.0023 54.2836 20.3813C54.8395 20.7425 55.1178 21.2391 55.1178 21.8712C55.1178 22.1617 55.069 22.4341 54.9713 22.6886C54.8989 22.8776 54.7991 23.0566 54.6731 23.2257C54.3754 23.6047 53.9402 23.9027 53.3653 24.1197C52.7905 24.3363 52.0765 24.4445 51.2228 24.4445C50.2773 24.4445 49.5076 24.3184 48.9144 24.0651C48.3206 23.7944 47.8759 23.4423 47.5783 23.0091C47.3005 22.5754 47.1619 22.1061 47.1619 21.6003H42.7383C42.7383 22.8825 43.0627 24.0204 43.7116 25.0133C44.3611 25.9887 45.316 26.7655 46.5776 27.3431Z" fill="#81818B"/>
<path d="M76.4548 27.8577C74.915 27.8577 73.6729 27.6774 72.7268 27.3158C71.7808 26.9369 71.0856 26.3136 70.6404 25.4469C70.2141 24.5618 70.0005 23.3703 70.0005 21.8712V15.9931H67.6915V12.8239H70.0005V8.81494H74.1454V12.8239H78.5968V15.9931H74.1454V22.034C74.1454 22.7382 74.3312 23.2799 74.7019 23.6589C75.0914 24.0204 75.6385 24.2008 76.3435 24.2008H78.5968V27.8577H76.4548Z" fill="#81818B"/>
<path fill-rule="evenodd" clip-rule="evenodd" d="M83.956 27.5328C84.9572 27.9659 86.1075 28.1829 87.4053 28.1829C88.6847 28.1829 89.8166 27.9659 90.7994 27.5328C91.7822 27.0992 92.5986 26.4943 93.2475 25.718C93.8964 24.9412 94.3327 24.0562 94.5547 23.0633H90.4655C90.2802 23.5148 89.9279 23.8938 89.4087 24.2007C88.8895 24.5077 88.2211 24.6616 87.4053 24.6616C86.8997 24.6616 86.4482 24.603 86.0503 24.4866C85.7473 24.398 85.4759 24.2759 85.2355 24.1197C84.679 23.7586 84.271 23.2526 84.0112 22.6027C83.9392 22.4175 83.8778 22.2239 83.8258 22.0222C83.7728 21.8178 83.7303 21.6052 83.6983 21.3838H94.833V19.9209C94.833 18.5665 94.5364 17.3205 93.9431 16.1828C93.3493 15.0269 92.4868 14.0969 91.3559 13.3926C90.2429 12.6703 88.8706 12.3091 87.2383 12.3091C85.9957 12.3091 84.8827 12.5259 83.8999 12.9593C82.936 13.3746 82.129 13.9434 81.4801 14.6658C80.8312 15.3881 80.3304 16.2099 79.9771 17.1309C79.6437 18.0337 79.4767 18.9818 79.4767 19.975V20.5168C79.4767 21.4741 79.6437 22.413 79.9771 23.334C80.3304 24.237 80.8312 25.0584 81.4801 25.799C82.1474 26.5216 82.9722 27.0992 83.956 27.5328ZM83.7749 18.7052C83.787 18.6478 83.8001 18.5914 83.8143 18.5358C83.8531 18.3826 83.8972 18.2359 83.9482 18.0956C83.9765 18.0158 84.007 17.9379 84.0395 17.8622C84.3172 17.194 84.7257 16.6884 85.2633 16.3453C85.4644 16.2171 85.6822 16.1128 85.9159 16.0326C86.3096 15.898 86.7506 15.8306 87.2383 15.8306C87.9991 15.8306 88.6291 16.0022 89.1299 16.3453C89.6491 16.6703 90.0387 17.1488 90.2986 17.7809C90.3196 17.8319 90.3395 17.8838 90.3589 17.9364C90.3894 18.0201 90.4183 18.1061 90.4445 18.1942C90.4839 18.3253 90.518 18.461 90.5485 18.6012C90.5705 18.7045 90.5894 18.8104 90.6062 18.9187H83.7319C83.745 18.8463 83.7592 18.7752 83.7749 18.7052Z" fill="#81818B"/>
<path d="M96.6699 27.6684V12.8238H100.203V16.5626C100.251 16.3403 100.306 16.127 100.366 15.9224C100.419 15.7501 100.475 15.5839 100.537 15.4243C100.926 14.4129 101.51 13.6546 102.289 13.1488C103.068 12.6251 104.023 12.3634 105.155 12.3634H105.349C106.5 12.3634 107.454 12.6251 108.215 13.1488C108.994 13.6546 109.578 14.4129 109.967 15.4243L109.998 15.5006L110.024 15.5704C110.042 15.5211 110.06 15.4725 110.078 15.4243C110.486 14.4129 111.08 13.6546 111.859 13.1488C112.638 12.6251 113.593 12.3634 114.725 12.3634H114.919C116.069 12.3634 117.033 12.6251 117.812 13.1488C118.61 13.6546 119.213 14.4129 119.62 15.4243C120.028 16.4356 120.233 17.6998 120.233 19.2166V27.6684H115.782V18.9728C115.782 18.1601 115.559 17.5011 115.114 16.9955C114.687 16.4897 114.075 16.2369 113.278 16.2369C112.48 16.2369 111.85 16.4988 111.386 17.0225C110.923 17.5281 110.691 18.2053 110.691 19.0542V27.6684H106.212V18.9728C106.212 18.1601 105.989 17.5011 105.544 16.9955C105.118 16.4897 104.514 16.2369 103.736 16.2369C102.92 16.2369 102.28 16.4988 101.817 17.0225C101.353 17.5281 101.121 18.2053 101.121 19.0542V27.6684H96.6699Z" fill="#81818B"/>
<path fill-rule="evenodd" clip-rule="evenodd" d="M132.123 24.808V27.6685H135.655V18.5666C135.655 17.1941 135.377 16.0746 134.821 15.2076C134.264 14.3227 133.449 13.6636 132.373 13.2302C131.316 12.7969 130.008 12.5801 128.45 12.5801C128.113 12.5801 127.76 12.5835 127.393 12.5908C127.176 12.5951 126.953 12.6006 126.726 12.6072C126.113 12.6252 125.52 12.6523 124.945 12.6885L124.506 12.7173C124.28 12.7325 124.069 12.7476 123.869 12.7629C123.72 12.7742 123.577 12.7856 123.443 12.7969V16.4538C124.018 16.4176 124.658 16.3814 125.363 16.3454C125.56 16.3354 125.755 16.326 125.949 16.3173C126.229 16.3046 126.505 16.2937 126.779 16.2842C126.995 16.2765 127.209 16.2697 127.421 16.2641C128.089 16.246 128.627 16.237 129.035 16.237C129.85 16.237 130.444 16.4265 130.815 16.8059C131.186 17.1851 131.371 17.754 131.371 18.5125V18.5666H128.617C127.264 18.5666 126.067 18.7382 125.028 19.0814C123.99 19.4063 123.183 19.921 122.609 20.6253C122.033 21.3117 121.746 22.1965 121.746 23.2799C121.746 24.2733 121.978 25.131 122.441 25.8537C122.905 26.5575 123.545 27.0993 124.361 27.4783C125.196 27.8577 126.16 28.0475 127.254 28.0475C128.311 28.0475 129.202 27.8577 129.925 27.4783C130.667 27.0993 131.242 26.5575 131.65 25.8537C131.722 25.7346 131.788 25.6116 131.851 25.4836C131.939 25.3029 132.018 25.1127 132.087 24.9131L132.123 24.808ZM131.371 22.1695V20.9775H128.589C127.81 20.9775 127.208 21.167 126.781 21.5463C126.373 21.9075 126.169 22.4041 126.169 23.0361C126.169 23.3337 126.22 23.6039 126.321 23.8478C126.424 24.0921 126.577 24.3091 126.781 24.4988C127.208 24.8604 127.81 25.0406 128.589 25.0406C128.737 25.0406 128.881 25.0335 129.019 25.0196C129.132 25.008 129.243 24.9914 129.349 24.9704C129.552 24.9301 129.745 24.872 129.925 24.7968C130.333 24.6165 130.667 24.3185 130.926 23.9028C131.186 23.4876 131.335 22.9095 131.371 22.1695Z" fill="#81818B"/>
<path d="M138.319 27.6685V12.8239H141.852V17.7236C142.022 16.3249 142.448 15.1971 143.132 14.3409C144.06 13.2032 145.394 12.6344 147.138 12.6344H147.722V16.3725H146.609C145.386 16.3725 144.44 16.6974 143.772 17.3476C143.104 17.9797 142.77 18.9007 142.77 20.1105V27.6685H138.319Z" fill="#81818B"/>
<path d="M153.367 20.7336H154.841L159.654 27.6685H164.661L158.559 19.1518L163.576 12.8239H158.903L153.367 19.8822V7.89392H148.916V27.6685H153.367V20.7336Z" fill="#81818B"/>
</svg>
